<?xml version="1.0" encoding="utf-8"?>
<svg xmlns="http://www.w3.org/2000/svg" xmlns:xlink="http://www.w3.org/1999/xlink" width="576" height="336" viewBox="0 0 2304 1344">
<defs>
  <clipPath id="clip290">
    <rect x="0" y="0" width="2304" height="1344"/>
  </clipPath>
</defs>
<path clip-path="url(#clip290)" d="M0 1344 L2304 1344 L2304 0 L0 0  Z" fill="#ffffff" fill-rule="evenodd" fill-opacity="1"/>
<defs>
  <clipPath id="clip291">
    <rect x="460" y="0" width="1614" height="1344"/>
  </clipPath>
</defs>
<path clip-path="url(#clip290)" d="M242.642 1180 L2256.76 1180 L2256.76 47.2441 L242.642 47.2441  Z" fill="#ffffff" fill-rule="evenodd" fill-opacity="1"/>
<defs>
  <clipPath id="clip292">
    <rect x="242" y="47" width="2015" height="1134"/>
  </clipPath>
</defs>
<polyline clip-path="url(#clip292)" style="stroke:#000000; stroke-linecap:round; stroke-linejoin:round; stroke-width:2; stroke-opacity:0.1; fill:none" points="299.645,1180 299.645,47.2441 "/>
<polyline clip-path="url(#clip292)" style="stroke:#000000; stroke-linecap:round; stroke-linejoin:round; stroke-width:2; stroke-opacity:0.1; fill:none" points="774.672,1180 774.672,47.2441 "/>
<polyline clip-path="url(#clip292)" style="stroke:#000000; stroke-linecap:round; stroke-linejoin:round; stroke-width:2; stroke-opacity:0.1; fill:none" points="1249.7,1180 1249.7,47.2441 "/>
<polyline clip-path="url(#clip292)" style="stroke:#000000; stroke-linecap:round; stroke-linejoin:round; stroke-width:2; stroke-opacity:0.1; fill:none" points="1724.73,1180 1724.73,47.2441 "/>
<polyline clip-path="url(#clip292)" style="stroke:#000000; stroke-linecap:round; stroke-linejoin:round; stroke-width:2; stroke-opacity:0.1; fill:none" points="2199.75,1180 2199.75,47.2441 "/>
<polyline clip-path="url(#clip290)" style="stroke:#000000; stroke-linecap:round; stroke-linejoin:round; stroke-width:4; stroke-opacity:1; fill:none" points="242.642,1180 2256.76,1180 "/>
<polyline clip-path="url(#clip290)" style="stroke:#000000; stroke-linecap:round; stroke-linejoin:round; stroke-width:4; stroke-opacity:1; fill:none" points="299.645,1180 299.645,1161.1 "/>
<polyline clip-path="url(#clip290)" style="stroke:#000000; stroke-linecap:round; stroke-linejoin:round; stroke-width:4; stroke-opacity:1; fill:none" points="774.672,1180 774.672,1161.1 "/>
<polyline clip-path="url(#clip290)" style="stroke:#000000; stroke-linecap:round; stroke-linejoin:round; stroke-width:4; stroke-opacity:1; fill:none" points="1249.7,1180 1249.7,1161.1 "/>
<polyline clip-path="url(#clip290)" style="stroke:#000000; stroke-linecap:round; stroke-linejoin:round; stroke-width:4; stroke-opacity:1; fill:none" points="1724.73,1180 1724.73,1161.1 "/>
<polyline clip-path="url(#clip290)" style="stroke:#000000; stroke-linecap:round; stroke-linejoin:round; stroke-width:4; stroke-opacity:1; fill:none" points="2199.75,1180 2199.75,1161.1 "/>
<path clip-path="url(#clip290)" d="M278.419 1237.7 L294.738 1237.7 L294.738 1241.63 L272.794 1241.63 L272.794 1237.7 Q275.456 1234.94 280.039 1230.31 Q284.645 1225.66 285.826 1224.32 Q288.071 1221.79 288.951 1220.06 Q289.854 1218.3 289.854 1216.61 Q289.854 1213.85 287.909 1212.12 Q285.988 1210.38 282.886 1210.38 Q280.687 1210.38 278.233 1211.15 Q275.803 1211.91 273.025 1213.46 L273.025 1208.74 Q275.849 1207.6 278.303 1207.03 Q280.756 1206.45 282.793 1206.45 Q288.164 1206.45 291.358 1209.13 Q294.553 1211.82 294.553 1216.31 Q294.553 1218.44 293.743 1220.36 Q292.955 1222.26 290.849 1224.85 Q290.27 1225.52 287.168 1228.74 Q284.067 1231.93 278.419 1237.7 Z" fill="#000000" fill-rule="nonzero" fill-opacity="1" /><path clip-path="url(#clip290)" d="M314.553 1210.15 Q310.941 1210.15 309.113 1213.72 Q307.307 1217.26 307.307 1224.39 Q307.307 1231.49 309.113 1235.06 Q310.941 1238.6 314.553 1238.6 Q318.187 1238.6 319.992 1235.06 Q321.821 1231.49 321.821 1224.39 Q321.821 1217.26 319.992 1213.72 Q318.187 1210.15 314.553 1210.15 M314.553 1206.45 Q320.363 1206.45 323.418 1211.05 Q326.497 1215.64 326.497 1224.39 Q326.497 1233.11 323.418 1237.72 Q320.363 1242.3 314.553 1242.3 Q308.742 1242.3 305.664 1237.72 Q302.608 1233.11 302.608 1224.39 Q302.608 1215.64 305.664 1211.05 Q308.742 1206.45 314.553 1206.45 Z" fill="#000000" fill-rule="nonzero" fill-opacity="1" /><path clip-path="url(#clip290)" d="M749.371 1207.07 L767.728 1207.07 L767.728 1211.01 L753.654 1211.01 L753.654 1219.48 Q754.672 1219.13 755.691 1218.97 Q756.709 1218.78 757.728 1218.78 Q763.515 1218.78 766.894 1221.96 Q770.274 1225.13 770.274 1230.54 Q770.274 1236.12 766.802 1239.22 Q763.33 1242.3 757.01 1242.3 Q754.834 1242.3 752.566 1241.93 Q750.32 1241.56 747.913 1240.82 L747.913 1236.12 Q749.996 1237.26 752.219 1237.81 Q754.441 1238.37 756.918 1238.37 Q760.922 1238.37 763.26 1236.26 Q765.598 1234.16 765.598 1230.54 Q765.598 1226.93 763.26 1224.83 Q760.922 1222.72 756.918 1222.72 Q755.043 1222.72 753.168 1223.14 Q751.316 1223.55 749.371 1224.43 L749.371 1207.07 Z" fill="#000000" fill-rule="nonzero" fill-opacity="1" /><path clip-path="url(#clip290)" d="M789.487 1210.15 Q785.876 1210.15 784.047 1213.72 Q782.242 1217.26 782.242 1224.39 Q782.242 1231.49 784.047 1235.06 Q785.876 1238.6 789.487 1238.6 Q793.121 1238.6 794.927 1235.06 Q796.755 1231.49 796.755 1224.39 Q796.755 1217.26 794.927 1213.72 Q793.121 1210.15 789.487 1210.15 M789.487 1206.45 Q795.297 1206.45 798.353 1211.05 Q801.431 1215.64 801.431 1224.39 Q801.431 1233.11 798.353 1237.72 Q795.297 1242.3 789.487 1242.3 Q783.677 1242.3 780.598 1237.72 Q777.542 1233.11 777.542 1224.39 Q777.542 1215.64 780.598 1211.05 Q783.677 1206.45 789.487 1206.45 Z" fill="#000000" fill-rule="nonzero" fill-opacity="1" /><path clip-path="url(#clip290)" d="M1209.31 1237.7 L1216.94 1237.7 L1216.94 1211.33 L1208.63 1213 L1208.63 1208.74 L1216.9 1207.07 L1221.57 1207.07 L1221.57 1237.7 L1229.21 1237.7 L1229.21 1241.63 L1209.31 1241.63 L1209.31 1237.7 Z" fill="#000000" fill-rule="nonzero" fill-opacity="1" /><path clip-path="url(#clip290)" d="M1248.66 1210.15 Q1245.05 1210.15 1243.22 1213.72 Q1241.41 1217.26 1241.41 1224.39 Q1241.41 1231.49 1243.22 1235.06 Q1245.05 1238.6 1248.66 1238.6 Q1252.29 1238.6 1254.1 1235.06 Q1255.93 1231.49 1255.93 1224.39 Q1255.93 1217.26 1254.1 1213.72 Q1252.29 1210.15 1248.66 1210.15 M1248.66 1206.45 Q1254.47 1206.45 1257.52 1211.05 Q1260.6 1215.64 1260.6 1224.39 Q1260.6 1233.11 1257.52 1237.72 Q1254.47 1242.3 1248.66 1242.3 Q1242.85 1242.3 1239.77 1237.72 Q1236.71 1233.11 1236.71 1224.39 Q1236.71 1215.64 1239.77 1211.05 Q1242.85 1206.45 1248.66 1206.45 Z" fill="#000000" fill-rule="nonzero" fill-opacity="1" /><path clip-path="url(#clip290)" d="M1278.82 1210.15 Q1275.21 1210.15 1273.38 1213.72 Q1271.57 1217.26 1271.57 1224.39 Q1271.57 1231.49 1273.38 1235.06 Q1275.21 1238.6 1278.82 1238.6 Q1282.45 1238.6 1284.26 1235.06 Q1286.09 1231.49 1286.09 1224.39 Q1286.09 1217.26 1284.26 1213.72 Q1282.45 1210.15 1278.82 1210.15 M1278.82 1206.45 Q1284.63 1206.45 1287.68 1211.05 Q1290.76 1215.64 1290.76 1224.39 Q1290.76 1233.11 1287.68 1237.72 Q1284.63 1242.3 1278.82 1242.3 Q1273.01 1242.3 1269.93 1237.72 Q1266.87 1233.11 1266.87 1224.39 Q1266.87 1215.64 1269.93 1211.05 Q1273.01 1206.45 1278.82 1206.45 Z" fill="#000000" fill-rule="nonzero" fill-opacity="1" /><path clip-path="url(#clip290)" d="M1688.42 1237.7 L1704.74 1237.7 L1704.74 1241.63 L1682.79 1241.63 L1682.79 1237.7 Q1685.46 1234.94 1690.04 1230.31 Q1694.64 1225.66 1695.83 1224.32 Q1698.07 1221.79 1698.95 1220.06 Q1699.85 1218.3 1699.85 1216.61 Q1699.85 1213.85 1697.91 1212.12 Q1695.99 1210.38 1692.89 1210.38 Q1690.69 1210.38 1688.23 1211.15 Q1685.8 1211.91 1683.02 1213.46 L1683.02 1208.74 Q1685.85 1207.6 1688.3 1207.03 Q1690.76 1206.45 1692.79 1206.45 Q1698.16 1206.45 1701.36 1209.13 Q1704.55 1211.82 1704.55 1216.31 Q1704.55 1218.44 1703.74 1220.36 Q1702.96 1222.26 1700.85 1224.85 Q1700.27 1225.52 1697.17 1228.74 Q1694.07 1231.93 1688.42 1237.7 Z" fill="#000000" fill-rule="nonzero" fill-opacity="1" /><path clip-path="url(#clip290)" d="M1724.55 1210.15 Q1720.94 1210.15 1719.11 1213.72 Q1717.31 1217.26 1717.31 1224.39 Q1717.31 1231.49 1719.11 1235.06 Q1720.94 1238.6 1724.55 1238.6 Q1728.19 1238.6 1729.99 1235.06 Q1731.82 1231.49 1731.82 1224.39 Q1731.82 1217.26 1729.99 1213.72 Q1728.19 1210.15 1724.55 1210.15 M1724.55 1206.45 Q1730.36 1206.45 1733.42 1211.05 Q1736.5 1215.64 1736.5 1224.39 Q1736.5 1233.11 1733.42 1237.72 Q1730.36 1242.3 1724.55 1242.3 Q1718.74 1242.3 1715.66 1237.72 Q1712.61 1233.11 1712.61 1224.39 Q1712.61 1215.64 1715.66 1211.05 Q1718.74 1206.45 1724.55 1206.45 Z" fill="#000000" fill-rule="nonzero" fill-opacity="1" /><path clip-path="url(#clip290)" d="M1754.71 1210.15 Q1751.1 1210.15 1749.27 1213.72 Q1747.47 1217.26 1747.47 1224.39 Q1747.47 1231.49 1749.27 1235.06 Q1751.1 1238.6 1754.71 1238.6 Q1758.35 1238.6 1760.15 1235.06 Q1761.98 1231.49 1761.98 1224.39 Q1761.98 1217.26 1760.15 1213.72 Q1758.35 1210.15 1754.71 1210.15 M1754.71 1206.45 Q1760.52 1206.45 1763.58 1211.05 Q1766.66 1215.64 1766.66 1224.39 Q1766.66 1233.11 1763.58 1237.72 Q1760.52 1242.3 1754.71 1242.3 Q1748.9 1242.3 1745.83 1237.72 Q1742.77 1233.11 1742.77 1224.39 Q1742.77 1215.64 1745.83 1211.05 Q1748.9 1206.45 1754.71 1206.45 Z" fill="#000000" fill-rule="nonzero" fill-opacity="1" /><path clip-path="url(#clip290)" d="M2159.37 1207.07 L2177.73 1207.07 L2177.73 1211.01 L2163.65 1211.01 L2163.65 1219.48 Q2164.67 1219.13 2165.69 1218.97 Q2166.71 1218.78 2167.73 1218.78 Q2173.51 1218.78 2176.89 1221.96 Q2180.27 1225.13 2180.27 1230.54 Q2180.27 1236.12 2176.8 1239.22 Q2173.33 1242.3 2167.01 1242.3 Q2164.83 1242.3 2162.57 1241.93 Q2160.32 1241.56 2157.91 1240.82 L2157.91 1236.12 Q2160 1237.26 2162.22 1237.81 Q2164.44 1238.37 2166.92 1238.37 Q2170.92 1238.37 2173.26 1236.26 Q2175.6 1234.16 2175.6 1230.54 Q2175.6 1226.93 2173.26 1224.83 Q2170.92 1222.72 2166.92 1222.72 Q2165.04 1222.72 2163.17 1223.14 Q2161.32 1223.55 2159.37 1224.43 L2159.37 1207.07 Z" fill="#000000" fill-rule="nonzero" fill-opacity="1" /><path clip-path="url(#clip290)" d="M2199.49 1210.15 Q2195.88 1210.15 2194.05 1213.72 Q2192.24 1217.26 2192.24 1224.39 Q2192.24 1231.49 2194.05 1235.06 Q2195.88 1238.6 2199.49 1238.6 Q2203.12 1238.6 2204.93 1235.06 Q2206.75 1231.49 2206.75 1224.39 Q2206.75 1217.26 2204.93 1213.72 Q2203.12 1210.15 2199.49 1210.15 M2199.49 1206.45 Q2205.3 1206.45 2208.35 1211.05 Q2211.43 1215.64 2211.43 1224.39 Q2211.43 1233.11 2208.35 1237.72 Q2205.3 1242.3 2199.49 1242.3 Q2193.68 1242.3 2190.6 1237.72 Q2187.54 1233.11 2187.54 1224.39 Q2187.54 1215.64 2190.6 1211.05 Q2193.68 1206.45 2199.49 1206.45 Z" fill="#000000" fill-rule="nonzero" fill-opacity="1" /><path clip-path="url(#clip290)" d="M2229.65 1210.15 Q2226.04 1210.15 2224.21 1213.72 Q2222.4 1217.26 2222.4 1224.39 Q2222.4 1231.49 2224.21 1235.06 Q2226.04 1238.6 2229.65 1238.6 Q2233.28 1238.6 2235.09 1235.06 Q2236.92 1231.49 2236.92 1224.39 Q2236.92 1217.26 2235.09 1213.72 Q2233.28 1210.15 2229.65 1210.15 M2229.65 1206.45 Q2235.46 1206.45 2238.51 1211.05 Q2241.59 1215.64 2241.59 1224.39 Q2241.59 1233.11 2238.51 1237.72 Q2235.46 1242.3 2229.65 1242.3 Q2223.84 1242.3 2220.76 1237.72 Q2217.7 1233.11 2217.7 1224.39 Q2217.7 1215.64 2220.76 1211.05 Q2223.84 1206.45 2229.65 1206.45 Z" fill="#000000" fill-rule="nonzero" fill-opacity="1" /><path clip-path="url(#clip290)" d="M1144.84 1277.46 L1144.84 1283.73 Q1141.18 1281.98 1137.93 1281.12 Q1134.69 1280.26 1131.66 1280.26 Q1126.41 1280.26 1123.55 1282.3 Q1120.71 1284.34 1120.71 1288.09 Q1120.71 1291.25 1122.59 1292.87 Q1124.5 1294.46 1129.78 1295.45 L1133.67 1296.24 Q1140.86 1297.61 1144.27 1301.08 Q1147.7 1304.52 1147.7 1310.31 Q1147.7 1317.22 1143.06 1320.78 Q1138.44 1324.35 1129.5 1324.35 Q1126.12 1324.35 1122.31 1323.58 Q1118.52 1322.82 1114.44 1321.32 L1114.44 1314.7 Q1118.36 1316.9 1122.11 1318.01 Q1125.87 1319.13 1129.5 1319.13 Q1135 1319.13 1138 1316.96 Q1140.99 1314.8 1140.99 1310.79 Q1140.99 1307.29 1138.82 1305.31 Q1136.69 1303.34 1131.79 1302.35 L1127.88 1301.59 Q1120.68 1300.16 1117.47 1297.1 Q1114.25 1294.05 1114.25 1288.6 Q1114.25 1282.3 1118.68 1278.67 Q1123.13 1275.04 1130.93 1275.04 Q1134.27 1275.04 1137.74 1275.65 Q1141.21 1276.25 1144.84 1277.46 Z" fill="#000000" fill-rule="nonzero" fill-opacity="1" /><path clip-path="url(#clip290)" d="M1173.68 1305.5 Q1166.58 1305.5 1163.84 1307.13 Q1161.1 1308.75 1161.1 1312.67 Q1161.1 1315.78 1163.14 1317.63 Q1165.21 1319.45 1168.74 1319.45 Q1173.61 1319.45 1176.54 1316.01 Q1179.5 1312.54 1179.5 1306.81 L1179.5 1305.5 L1173.68 1305.5 M1185.36 1303.09 L1185.36 1323.42 L1179.5 1323.42 L1179.5 1318.01 Q1177.5 1321.26 1174.5 1322.82 Q1171.51 1324.35 1167.18 1324.35 Q1161.71 1324.35 1158.46 1321.29 Q1155.25 1318.2 1155.25 1313.05 Q1155.25 1307.03 1159.26 1303.98 Q1163.3 1300.92 1171.29 1300.92 L1179.5 1300.92 L1179.5 1300.35 Q1179.5 1296.31 1176.83 1294.11 Q1174.19 1291.88 1169.38 1291.88 Q1166.32 1291.88 1163.43 1292.61 Q1160.53 1293.35 1157.86 1294.81 L1157.86 1289.4 Q1161.07 1288.16 1164.1 1287.55 Q1167.12 1286.92 1169.98 1286.92 Q1177.72 1286.92 1181.54 1290.93 Q1185.36 1294.94 1185.36 1303.09 Z" fill="#000000" fill-rule="nonzero" fill-opacity="1" /><path clip-path="url(#clip290)" d="M1225.18 1294.62 Q1227.37 1290.67 1230.43 1288.79 Q1233.48 1286.92 1237.62 1286.92 Q1243.19 1286.92 1246.21 1290.83 Q1249.24 1294.71 1249.24 1301.91 L1249.24 1323.42 L1243.35 1323.42 L1243.35 1302.1 Q1243.35 1296.97 1241.53 1294.49 Q1239.72 1292.01 1236 1292.01 Q1231.45 1292.01 1228.8 1295.03 Q1226.16 1298.06 1226.16 1303.28 L1226.16 1323.42 L1220.27 1323.42 L1220.27 1302.1 Q1220.27 1296.94 1218.46 1294.49 Q1216.65 1292.01 1212.86 1292.01 Q1208.37 1292.01 1205.73 1295.06 Q1203.09 1298.09 1203.09 1303.28 L1203.09 1323.42 L1197.2 1323.42 L1197.2 1287.78 L1203.09 1287.78 L1203.09 1293.31 Q1205.09 1290.04 1207.89 1288.48 Q1210.69 1286.92 1214.54 1286.92 Q1218.43 1286.92 1221.13 1288.89 Q1223.87 1290.86 1225.18 1294.62 Z" fill="#000000" fill-rule="nonzero" fill-opacity="1" /><path clip-path="url(#clip290)" d="M1266.58 1318.08 L1266.58 1336.98 L1260.7 1336.98 L1260.7 1287.78 L1266.58 1287.78 L1266.58 1293.19 Q1268.43 1290 1271.23 1288.48 Q1274.06 1286.92 1277.98 1286.92 Q1284.47 1286.92 1288.51 1292.07 Q1292.59 1297.23 1292.59 1305.63 Q1292.59 1314.03 1288.51 1319.19 Q1284.47 1324.35 1277.98 1324.35 Q1274.06 1324.35 1271.23 1322.82 Q1268.43 1321.26 1266.58 1318.08 M1286.51 1305.63 Q1286.51 1299.17 1283.84 1295.51 Q1281.19 1291.82 1276.55 1291.82 Q1271.9 1291.82 1269.23 1295.51 Q1266.58 1299.17 1266.58 1305.63 Q1266.58 1312.09 1269.23 1315.78 Q1271.9 1319.45 1276.55 1319.45 Q1281.19 1319.45 1283.84 1315.78 Q1286.51 1312.09 1286.51 1305.63 Z" fill="#000000" fill-rule="nonzero" fill-opacity="1" /><path clip-path="url(#clip290)" d="M1302.3 1273.9 L1308.15 1273.9 L1308.15 1323.42 L1302.3 1323.42 L1302.3 1273.9 Z" fill="#000000" fill-rule="nonzero" fill-opacity="1" /><path clip-path="url(#clip290)" d="M1350.9 1304.14 L1350.9 1307 L1323.97 1307 Q1324.35 1313.05 1327.6 1316.23 Q1330.88 1319.38 1336.7 1319.38 Q1340.08 1319.38 1343.23 1318.55 Q1346.41 1317.73 1349.53 1316.07 L1349.53 1321.61 Q1346.38 1322.95 1343.07 1323.65 Q1339.76 1324.35 1336.35 1324.35 Q1327.82 1324.35 1322.83 1319.38 Q1317.86 1314.42 1317.86 1305.95 Q1317.86 1297.2 1322.57 1292.07 Q1327.31 1286.92 1335.33 1286.92 Q1342.53 1286.92 1346.7 1291.56 Q1350.9 1296.18 1350.9 1304.14 M1345.04 1302.42 Q1344.98 1297.61 1342.34 1294.75 Q1339.73 1291.88 1335.4 1291.88 Q1330.5 1291.88 1327.54 1294.65 Q1324.61 1297.42 1324.16 1302.45 L1345.04 1302.42 Z" fill="#000000" fill-rule="nonzero" fill-opacity="1" /><path clip-path="url(#clip290)" d="M1383.24 1288.83 L1383.24 1294.36 Q1380.75 1293.09 1378.08 1292.45 Q1375.41 1291.82 1372.54 1291.82 Q1368.18 1291.82 1365.98 1293.15 Q1363.82 1294.49 1363.82 1297.17 Q1363.82 1299.2 1365.38 1300.38 Q1366.94 1301.53 1371.65 1302.58 L1373.66 1303.02 Q1379.89 1304.36 1382.5 1306.81 Q1385.15 1309.23 1385.15 1313.59 Q1385.15 1318.55 1381.2 1321.45 Q1377.28 1324.35 1370.41 1324.35 Q1367.54 1324.35 1364.42 1323.77 Q1361.34 1323.23 1357.9 1322.12 L1357.9 1316.07 Q1361.15 1317.76 1364.3 1318.62 Q1367.45 1319.45 1370.54 1319.45 Q1374.67 1319.45 1376.9 1318.04 Q1379.13 1316.61 1379.13 1314.03 Q1379.13 1311.65 1377.51 1310.37 Q1375.92 1309.1 1370.47 1307.92 L1368.44 1307.45 Q1362.99 1306.3 1360.57 1303.94 Q1358.15 1301.56 1358.15 1297.42 Q1358.15 1292.39 1361.72 1289.65 Q1365.28 1286.92 1371.84 1286.92 Q1375.09 1286.92 1377.95 1287.39 Q1380.82 1287.87 1383.24 1288.83 Z" fill="#000000" fill-rule="nonzero" fill-opacity="1" /><polyline clip-path="url(#clip292)" style="stroke:#000000; stroke-linecap:round; stroke-linejoin:round; stroke-width:2; stroke-opacity:0.1; fill:none" points="242.642,1171.98 2256.76,1171.98 "/>
<polyline clip-path="url(#clip292)" style="stroke:#000000; stroke-linecap:round; stroke-linejoin:round; stroke-width:2; stroke-opacity:0.1; fill:none" points="242.642,898.811 2256.76,898.811 "/>
<polyline clip-path="url(#clip292)" style="stroke:#000000; stroke-linecap:round; stroke-linejoin:round; stroke-width:2; stroke-opacity:0.1; fill:none" points="242.642,625.641 2256.76,625.641 "/>
<polyline clip-path="url(#clip292)" style="stroke:#000000; stroke-linecap:round; stroke-linejoin:round; stroke-width:2; stroke-opacity:0.1; fill:none" points="242.642,352.472 2256.76,352.472 "/>
<polyline clip-path="url(#clip292)" style="stroke:#000000; stroke-linecap:round; stroke-linejoin:round; stroke-width:2; stroke-opacity:0.1; fill:none" points="242.642,79.3032 2256.76,79.3032 "/>
<polyline clip-path="url(#clip290)" style="stroke:#000000; stroke-linecap:round; stroke-linejoin:round; stroke-width:4; stroke-opacity:1; fill:none" points="242.642,1180 242.642,47.2441 "/>
<polyline clip-path="url(#clip290)" style="stroke:#000000; stroke-linecap:round; stroke-linejoin:round; stroke-width:4; stroke-opacity:1; fill:none" points="242.642,1171.98 261.54,1171.98 "/>
<polyline clip-path="url(#clip290)" style="stroke:#000000; stroke-linecap:round; stroke-linejoin:round; stroke-width:4; stroke-opacity:1; fill:none" points="242.642,898.811 261.54,898.811 "/>
<polyline clip-path="url(#clip290)" style="stroke:#000000; stroke-linecap:round; stroke-linejoin:round; stroke-width:4; stroke-opacity:1; fill:none" points="242.642,625.641 261.54,625.641 "/>
<polyline clip-path="url(#clip290)" style="stroke:#000000; stroke-linecap:round; stroke-linejoin:round; stroke-width:4; stroke-opacity:1; fill:none" points="242.642,352.472 261.54,352.472 "/>
<polyline clip-path="url(#clip290)" style="stroke:#000000; stroke-linecap:round; stroke-linejoin:round; stroke-width:4; stroke-opacity:1; fill:none" points="242.642,79.3032 261.54,79.3032 "/>
<path clip-path="url(#clip290)" d="M120.745 1157.78 Q117.133 1157.78 115.305 1161.34 Q113.499 1164.88 113.499 1172.01 Q113.499 1179.12 115.305 1182.69 Q117.133 1186.23 120.745 1186.23 Q124.379 1186.23 126.184 1182.69 Q128.013 1179.12 128.013 1172.01 Q128.013 1164.88 126.184 1161.34 Q124.379 1157.78 120.745 1157.78 M120.745 1154.07 Q126.555 1154.07 129.61 1158.68 Q132.689 1163.26 132.689 1172.01 Q132.689 1180.74 129.61 1185.35 Q126.555 1189.93 120.745 1189.93 Q114.934 1189.93 111.856 1185.35 Q108.8 1180.74 108.8 1172.01 Q108.8 1163.26 111.856 1158.68 Q114.934 1154.07 120.745 1154.07 Z" fill="#000000" fill-rule="nonzero" fill-opacity="1" /><path clip-path="url(#clip290)" d="M140.906 1183.38 L145.791 1183.38 L145.791 1189.26 L140.906 1189.26 L140.906 1183.38 Z" fill="#000000" fill-rule="nonzero" fill-opacity="1" /><path clip-path="url(#clip290)" d="M165.976 1157.78 Q162.365 1157.78 160.536 1161.34 Q158.73 1164.88 158.73 1172.01 Q158.73 1179.12 160.536 1182.69 Q162.365 1186.23 165.976 1186.23 Q169.61 1186.23 171.416 1182.69 Q173.244 1179.12 173.244 1172.01 Q173.244 1164.88 171.416 1161.34 Q169.61 1157.78 165.976 1157.78 M165.976 1154.07 Q171.786 1154.07 174.841 1158.68 Q177.92 1163.26 177.92 1172.01 Q177.92 1180.74 174.841 1185.35 Q171.786 1189.93 165.976 1189.93 Q160.166 1189.93 157.087 1185.35 Q154.031 1180.74 154.031 1172.01 Q154.031 1163.26 157.087 1158.68 Q160.166 1154.07 165.976 1154.07 Z" fill="#000000" fill-rule="nonzero" fill-opacity="1" /><path clip-path="url(#clip290)" d="M196.138 1157.78 Q192.527 1157.78 190.698 1161.34 Q188.892 1164.88 188.892 1172.01 Q188.892 1179.12 190.698 1182.69 Q192.527 1186.23 196.138 1186.23 Q199.772 1186.23 201.577 1182.69 Q203.406 1179.12 203.406 1172.01 Q203.406 1164.88 201.577 1161.34 Q199.772 1157.78 196.138 1157.78 M196.138 1154.07 Q201.948 1154.07 205.003 1158.68 Q208.082 1163.26 208.082 1172.01 Q208.082 1180.74 205.003 1185.35 Q201.948 1189.93 196.138 1189.93 Q190.327 1189.93 187.249 1185.35 Q184.193 1180.74 184.193 1172.01 Q184.193 1163.26 187.249 1158.68 Q190.327 1154.07 196.138 1154.07 Z" fill="#000000" fill-rule="nonzero" fill-opacity="1" /><path clip-path="url(#clip290)" d="M121.74 884.609 Q118.129 884.609 116.3 888.174 Q114.495 891.716 114.495 898.845 Q114.495 905.952 116.3 909.516 Q118.129 913.058 121.74 913.058 Q125.374 913.058 127.18 909.516 Q129.008 905.952 129.008 898.845 Q129.008 891.716 127.18 888.174 Q125.374 884.609 121.74 884.609 M121.74 880.906 Q127.55 880.906 130.606 885.512 Q133.684 890.095 133.684 898.845 Q133.684 907.572 130.606 912.178 Q127.55 916.762 121.74 916.762 Q115.93 916.762 112.851 912.178 Q109.796 907.572 109.796 898.845 Q109.796 890.095 112.851 885.512 Q115.93 880.906 121.74 880.906 Z" fill="#000000" fill-rule="nonzero" fill-opacity="1" /><path clip-path="url(#clip290)" d="M141.902 910.211 L146.786 910.211 L146.786 916.091 L141.902 916.091 L141.902 910.211 Z" fill="#000000" fill-rule="nonzero" fill-opacity="1" /><path clip-path="url(#clip290)" d="M160.999 912.155 L177.318 912.155 L177.318 916.091 L155.374 916.091 L155.374 912.155 Q158.036 909.401 162.619 904.771 Q167.226 900.118 168.406 898.776 Q170.652 896.253 171.531 894.517 Q172.434 892.757 172.434 891.067 Q172.434 888.313 170.49 886.577 Q168.568 884.841 165.467 884.841 Q163.267 884.841 160.814 885.605 Q158.383 886.368 155.605 887.919 L155.605 883.197 Q158.43 882.063 160.883 881.484 Q163.337 880.906 165.374 880.906 Q170.744 880.906 173.939 883.591 Q177.133 886.276 177.133 890.767 Q177.133 892.896 176.323 894.817 Q175.536 896.716 173.429 899.308 Q172.851 899.979 169.749 903.197 Q166.647 906.391 160.999 912.155 Z" fill="#000000" fill-rule="nonzero" fill-opacity="1" /><path clip-path="url(#clip290)" d="M187.179 881.531 L205.536 881.531 L205.536 885.466 L191.462 885.466 L191.462 893.938 Q192.48 893.591 193.499 893.429 Q194.517 893.243 195.536 893.243 Q201.323 893.243 204.702 896.415 Q208.082 899.586 208.082 905.003 Q208.082 910.581 204.61 913.683 Q201.138 916.762 194.818 916.762 Q192.642 916.762 190.374 916.391 Q188.128 916.021 185.721 915.28 L185.721 910.581 Q187.804 911.716 190.027 912.271 Q192.249 912.827 194.726 912.827 Q198.73 912.827 201.068 910.72 Q203.406 908.614 203.406 905.003 Q203.406 901.392 201.068 899.285 Q198.73 897.179 194.726 897.179 Q192.851 897.179 190.976 897.595 Q189.124 898.012 187.179 898.892 L187.179 881.531 Z" fill="#000000" fill-rule="nonzero" fill-opacity="1" /><path clip-path="url(#clip290)" d="M120.745 611.44 Q117.133 611.44 115.305 615.005 Q113.499 618.547 113.499 625.676 Q113.499 632.783 115.305 636.347 Q117.133 639.889 120.745 639.889 Q124.379 639.889 126.184 636.347 Q128.013 632.783 128.013 625.676 Q128.013 618.547 126.184 615.005 Q124.379 611.44 120.745 611.44 M120.745 607.736 Q126.555 607.736 129.61 612.343 Q132.689 616.926 132.689 625.676 Q132.689 634.403 129.61 639.009 Q126.555 643.593 120.745 643.593 Q114.934 643.593 111.856 639.009 Q108.8 634.403 108.8 625.676 Q108.8 616.926 111.856 612.343 Q114.934 607.736 120.745 607.736 Z" fill="#000000" fill-rule="nonzero" fill-opacity="1" /><path clip-path="url(#clip290)" d="M140.906 637.042 L145.791 637.042 L145.791 642.921 L140.906 642.921 L140.906 637.042 Z" fill="#000000" fill-rule="nonzero" fill-opacity="1" /><path clip-path="url(#clip290)" d="M156.022 608.361 L174.379 608.361 L174.379 612.297 L160.305 612.297 L160.305 620.769 Q161.323 620.422 162.342 620.259 Q163.36 620.074 164.379 620.074 Q170.166 620.074 173.545 623.246 Q176.925 626.417 176.925 631.834 Q176.925 637.412 173.453 640.514 Q169.98 643.593 163.661 643.593 Q161.485 643.593 159.217 643.222 Q156.971 642.852 154.564 642.111 L154.564 637.412 Q156.647 638.546 158.869 639.102 Q161.092 639.658 163.568 639.658 Q167.573 639.658 169.911 637.551 Q172.249 635.445 172.249 631.834 Q172.249 628.222 169.911 626.116 Q167.573 624.009 163.568 624.009 Q161.693 624.009 159.818 624.426 Q157.967 624.843 156.022 625.722 L156.022 608.361 Z" fill="#000000" fill-rule="nonzero" fill-opacity="1" /><path clip-path="url(#clip290)" d="M196.138 611.44 Q192.527 611.44 190.698 615.005 Q188.892 618.547 188.892 625.676 Q188.892 632.783 190.698 636.347 Q192.527 639.889 196.138 639.889 Q199.772 639.889 201.577 636.347 Q203.406 632.783 203.406 625.676 Q203.406 618.547 201.577 615.005 Q199.772 611.44 196.138 611.44 M196.138 607.736 Q201.948 607.736 205.003 612.343 Q208.082 616.926 208.082 625.676 Q208.082 634.403 205.003 639.009 Q201.948 643.593 196.138 643.593 Q190.327 643.593 187.249 639.009 Q184.193 634.403 184.193 625.676 Q184.193 616.926 187.249 612.343 Q190.327 607.736 196.138 607.736 Z" fill="#000000" fill-rule="nonzero" fill-opacity="1" /><path clip-path="url(#clip290)" d="M121.74 338.271 Q118.129 338.271 116.3 341.836 Q114.495 345.377 114.495 352.507 Q114.495 359.613 116.3 363.178 Q118.129 366.72 121.74 366.72 Q125.374 366.72 127.18 363.178 Q129.008 359.613 129.008 352.507 Q129.008 345.377 127.18 341.836 Q125.374 338.271 121.74 338.271 M121.74 334.567 Q127.55 334.567 130.606 339.174 Q133.684 343.757 133.684 352.507 Q133.684 361.234 130.606 365.84 Q127.55 370.424 121.74 370.424 Q115.93 370.424 112.851 365.84 Q109.796 361.234 109.796 352.507 Q109.796 343.757 112.851 339.174 Q115.93 334.567 121.74 334.567 Z" fill="#000000" fill-rule="nonzero" fill-opacity="1" /><path clip-path="url(#clip290)" d="M141.902 363.873 L146.786 363.873 L146.786 369.752 L141.902 369.752 L141.902 363.873 Z" fill="#000000" fill-rule="nonzero" fill-opacity="1" /><path clip-path="url(#clip290)" d="M155.791 335.192 L178.013 335.192 L178.013 337.183 L165.467 369.752 L160.582 369.752 L172.388 339.127 L155.791 339.127 L155.791 335.192 Z" fill="#000000" fill-rule="nonzero" fill-opacity="1" /><path clip-path="url(#clip290)" d="M187.179 335.192 L205.536 335.192 L205.536 339.127 L191.462 339.127 L191.462 347.6 Q192.48 347.252 193.499 347.09 Q194.517 346.905 195.536 346.905 Q201.323 346.905 204.702 350.076 Q208.082 353.248 208.082 358.664 Q208.082 364.243 204.61 367.345 Q201.138 370.424 194.818 370.424 Q192.642 370.424 190.374 370.053 Q188.128 369.683 185.721 368.942 L185.721 364.243 Q187.804 365.377 190.027 365.933 Q192.249 366.488 194.726 366.488 Q198.73 366.488 201.068 364.382 Q203.406 362.276 203.406 358.664 Q203.406 355.053 201.068 352.947 Q198.73 350.84 194.726 350.84 Q192.851 350.84 190.976 351.257 Q189.124 351.674 187.179 352.553 L187.179 335.192 Z" fill="#000000" fill-rule="nonzero" fill-opacity="1" /><path clip-path="url(#clip290)" d="M111.555 92.6481 L119.194 92.6481 L119.194 66.2825 L110.883 67.9491 L110.883 63.6899 L119.147 62.0232 L123.823 62.0232 L123.823 92.6481 L131.462 92.6481 L131.462 96.5832 L111.555 96.5832 L111.555 92.6481 Z" fill="#000000" fill-rule="nonzero" fill-opacity="1" /><path clip-path="url(#clip290)" d="M140.906 90.7036 L145.791 90.7036 L145.791 96.5832 L140.906 96.5832 L140.906 90.7036 Z" fill="#000000" fill-rule="nonzero" fill-opacity="1" /><path clip-path="url(#clip290)" d="M165.976 65.1019 Q162.365 65.1019 160.536 68.6667 Q158.73 72.2084 158.73 79.3379 Q158.73 86.4444 160.536 90.0092 Q162.365 93.5508 165.976 93.5508 Q169.61 93.5508 171.416 90.0092 Q173.244 86.4444 173.244 79.3379 Q173.244 72.2084 171.416 68.6667 Q169.61 65.1019 165.976 65.1019 M165.976 61.3982 Q171.786 61.3982 174.841 66.0047 Q177.92 70.588 177.92 79.3379 Q177.92 88.0647 174.841 92.6712 Q171.786 97.2545 165.976 97.2545 Q160.166 97.2545 157.087 92.6712 Q154.031 88.0647 154.031 79.3379 Q154.031 70.588 157.087 66.0047 Q160.166 61.3982 165.976 61.3982 Z" fill="#000000" fill-rule="nonzero" fill-opacity="1" /><path clip-path="url(#clip290)" d="M196.138 65.1019 Q192.527 65.1019 190.698 68.6667 Q188.892 72.2084 188.892 79.3379 Q188.892 86.4444 190.698 90.0092 Q192.527 93.5508 196.138 93.5508 Q199.772 93.5508 201.577 90.0092 Q203.406 86.4444 203.406 79.3379 Q203.406 72.2084 201.577 68.6667 Q199.772 65.1019 196.138 65.1019 M196.138 61.3982 Q201.948 61.3982 205.003 66.0047 Q208.082 70.588 208.082 79.3379 Q208.082 88.0647 205.003 92.6712 Q201.948 97.2545 196.138 97.2545 Q190.327 97.2545 187.249 92.6712 Q184.193 88.0647 184.193 79.3379 Q184.193 70.588 187.249 66.0047 Q190.327 61.3982 196.138 61.3982 Z" fill="#000000" fill-rule="nonzero" fill-opacity="1" /><path clip-path="url(#clip290)" d="M17.7477 702.535 L35.6035 702.535 L35.6035 694.451 Q35.6035 689.963 33.28 687.512 Q30.9565 685.061 26.6597 685.061 Q22.3947 685.061 20.0712 687.512 Q17.7477 689.963 17.7477 694.451 L17.7477 702.535 M12.4642 708.964 L12.4642 694.451 Q12.4642 686.462 16.0926 682.388 Q19.6892 678.282 26.6597 678.282 Q33.6938 678.282 37.2904 682.388 Q40.887 686.462 40.887 694.451 L40.887 702.535 L59.9842 702.535 L59.9842 708.964 L12.4642 708.964 Z" fill="#000000" fill-rule="nonzero" fill-opacity="1" /><path clip-path="url(#clip290)" d="M28.4421 658.421 Q28.4421 663.131 32.1342 665.869 Q35.7945 668.606 42.192 668.606 Q48.5895 668.606 52.2817 665.9 Q55.9419 663.163 55.9419 658.421 Q55.9419 653.742 52.2498 651.005 Q48.5577 648.267 42.192 648.267 Q35.8581 648.267 32.166 651.005 Q28.4421 653.742 28.4421 658.421 M23.4768 658.421 Q23.4768 650.782 28.4421 646.421 Q33.4073 642.061 42.192 642.061 Q50.9449 642.061 55.9419 646.421 Q60.9072 650.782 60.9072 658.421 Q60.9072 666.091 55.9419 670.452 Q50.9449 674.78 42.192 674.78 Q33.4073 674.78 28.4421 670.452 Q23.4768 666.091 23.4768 658.421 Z" fill="#000000" fill-rule="nonzero" fill-opacity="1" /><path clip-path="url(#clip290)" d="M24.3362 635.759 L24.3362 629.902 L52.1543 622.582 L24.3362 615.293 L24.3362 608.386 L52.1543 601.066 L24.3362 593.777 L24.3362 587.92 L59.9842 597.246 L59.9842 604.153 L30.7656 611.824 L59.9842 619.526 L59.9842 626.433 L24.3362 635.759 Z" fill="#000000" fill-rule="nonzero" fill-opacity="1" /><path clip-path="url(#clip290)" d="M40.6961 548.549 L43.5606 548.549 L43.5606 575.475 Q49.6081 575.094 52.7909 571.847 Q55.9419 568.569 55.9419 562.744 Q55.9419 559.37 55.1144 556.219 Q54.2869 553.036 52.6318 549.917 L58.1699 549.917 Q59.5067 553.068 60.207 556.378 Q60.9072 559.689 60.9072 563.094 Q60.9072 571.624 55.9419 576.621 Q50.9767 581.587 42.5103 581.587 Q33.7574 581.587 28.6331 576.876 Q23.4768 572.133 23.4768 564.113 Q23.4768 556.919 28.1238 552.75 Q32.7389 548.549 40.6961 548.549 M38.9773 554.405 Q34.1712 554.469 31.3066 557.11 Q28.4421 559.72 28.4421 564.049 Q28.4421 568.951 31.2112 571.911 Q33.9802 574.839 39.0092 575.285 L38.9773 554.405 Z" fill="#000000" fill-rule="nonzero" fill-opacity="1" /><path clip-path="url(#clip290)" d="M29.8107 518.28 Q29.2378 519.266 28.9832 520.444 Q28.6967 521.59 28.6967 522.99 Q28.6967 527.955 31.9432 530.629 Q35.1579 533.271 41.2053 533.271 L59.9842 533.271 L59.9842 539.159 L24.3362 539.159 L24.3362 533.271 L29.8744 533.271 Q26.6279 531.425 25.0683 528.465 Q23.4768 525.505 23.4768 521.271 Q23.4768 520.667 23.5723 519.935 Q23.636 519.203 23.7951 518.311 L29.8107 518.28 Z" fill="#000000" fill-rule="nonzero" fill-opacity="1" /><polyline clip-path="url(#clip292)" style="stroke:#009af9; stroke-linecap:round; stroke-linejoin:round; stroke-width:4; stroke-opacity:1; fill:none" points="299.645,1147.94 774.672,1086.75 1249.7,821.23 1724.73,89.1373 2199.75,79.3032 "/>
<circle clip-path="url(#clip292)" cx="299.645" cy="1147.94" r="14.4" fill="#009af9" fill-rule="evenodd" fill-opacity="1" stroke="#000000" stroke-opacity="1" stroke-width="2.688"/>
<circle clip-path="url(#clip292)" cx="774.672" cy="1086.75" r="14.4" fill="#009af9" fill-rule="evenodd" fill-opacity="1" stroke="#000000" stroke-opacity="1" stroke-width="2.688"/>
<circle clip-path="url(#clip292)" cx="1249.7" cy="821.23" r="14.4" fill="#009af9" fill-rule="evenodd" fill-opacity="1" stroke="#000000" stroke-opacity="1" stroke-width="2.688"/>
<circle clip-path="url(#clip292)" cx="1724.73" cy="89.1373" r="14.4" fill="#009af9" fill-rule="evenodd" fill-opacity="1" stroke="#000000" stroke-opacity="1" stroke-width="2.688"/>
<circle clip-path="url(#clip292)" cx="2199.75" cy="79.3032" r="14.4" fill="#009af9" fill-rule="evenodd" fill-opacity="1" stroke="#000000" stroke-opacity="1" stroke-width="2.688"/>
<polyline clip-path="url(#clip292)" style="stroke:#e26f46; stroke-linecap:round; stroke-linejoin:round; stroke-width:4; stroke-opacity:1; fill:none" points="299.645,1131.55 774.672,1078.01 1249.7,800.47 1724.73,89.1373 2199.75,79.3032 "/>
<circle clip-path="url(#clip292)" cx="299.645" cy="1131.55" r="14.4" fill="#e26f46" fill-rule="evenodd" fill-opacity="1" stroke="#000000" stroke-opacity="1" stroke-width="2.688"/>
<circle clip-path="url(#clip292)" cx="774.672" cy="1078.01" r="14.4" fill="#e26f46" fill-rule="evenodd" fill-opacity="1" stroke="#000000" stroke-opacity="1" stroke-width="2.688"/>
<circle clip-path="url(#clip292)" cx="1249.7" cy="800.47" r="14.4" fill="#e26f46" fill-rule="evenodd" fill-opacity="1" stroke="#000000" stroke-opacity="1" stroke-width="2.688"/>
<circle clip-path="url(#clip292)" cx="1724.73" cy="89.1373" r="14.4" fill="#e26f46" fill-rule="evenodd" fill-opacity="1" stroke="#000000" stroke-opacity="1" stroke-width="2.688"/>
<circle clip-path="url(#clip292)" cx="2199.75" cy="79.3032" r="14.4" fill="#e26f46" fill-rule="evenodd" fill-opacity="1" stroke="#000000" stroke-opacity="1" stroke-width="2.688"/>
<path clip-path="url(#clip290)" d="M309.779 240.523 L749.314 240.523 L749.314 85.0026 L309.779 85.0026  Z" fill="#ffffff" fill-rule="evenodd" fill-opacity="1"/>
<polyline clip-path="url(#clip290)" style="stroke:#000000; stroke-linecap:round; stroke-linejoin:round; stroke-width:4; stroke-opacity:1; fill:none" points="309.779,240.523 749.314,240.523 749.314,85.0026 309.779,85.0026 309.779,240.523 "/>
<polyline clip-path="url(#clip290)" style="stroke:#009af9; stroke-linecap:round; stroke-linejoin:round; stroke-width:4; stroke-opacity:1; fill:none" points="332.158,136.843 466.432,136.843 "/>
<circle clip-path="url(#clip290)" cx="399.295" cy="136.843" r="18.6492" fill="#009af9" fill-rule="evenodd" fill-opacity="1" stroke="#000000" stroke-opacity="1" stroke-width="3.82293"/>
<path clip-path="url(#clip290)" d="M511.057 120.697 L511.057 125.257 Q508.395 123.984 506.034 123.359 Q503.673 122.734 501.473 122.734 Q497.654 122.734 495.571 124.215 Q493.511 125.697 493.511 128.428 Q493.511 130.72 494.876 131.901 Q496.265 133.058 500.108 133.776 L502.932 134.354 Q508.163 135.35 510.64 137.873 Q513.14 140.373 513.14 144.586 Q513.14 149.609 509.76 152.201 Q506.404 154.794 499.899 154.794 Q497.446 154.794 494.668 154.238 Q491.913 153.683 488.95 152.595 L488.95 147.78 Q491.798 149.377 494.529 150.187 Q497.261 150.998 499.899 150.998 Q503.904 150.998 506.08 149.424 Q508.256 147.85 508.256 144.933 Q508.256 142.387 506.682 140.951 Q505.131 139.516 501.566 138.799 L498.719 138.243 Q493.487 137.201 491.149 134.979 Q488.812 132.757 488.812 128.799 Q488.812 124.215 492.029 121.576 Q495.27 118.938 500.941 118.938 Q503.372 118.938 505.895 119.377 Q508.418 119.817 511.057 120.697 Z" fill="#000000" fill-rule="nonzero" fill-opacity="1" /><path clip-path="url(#clip290)" d="M541.797 138.475 L541.797 154.123 L537.538 154.123 L537.538 138.613 Q537.538 134.933 536.103 133.104 Q534.668 131.276 531.797 131.276 Q528.348 131.276 526.358 133.475 Q524.367 135.674 524.367 139.47 L524.367 154.123 L520.084 154.123 L520.084 118.104 L524.367 118.104 L524.367 132.225 Q525.895 129.887 527.955 128.729 Q530.038 127.572 532.746 127.572 Q537.214 127.572 539.506 130.35 Q541.797 133.104 541.797 138.475 Z" fill="#000000" fill-rule="nonzero" fill-opacity="1" /><path clip-path="url(#clip290)" d="M562.075 141.09 Q556.913 141.09 554.922 142.271 Q552.932 143.451 552.932 146.299 Q552.932 148.567 554.413 149.91 Q555.918 151.229 558.487 151.229 Q562.029 151.229 564.158 148.729 Q566.311 146.206 566.311 142.039 L566.311 141.09 L562.075 141.09 M570.57 139.331 L570.57 154.123 L566.311 154.123 L566.311 150.187 Q564.853 152.549 562.677 153.683 Q560.501 154.794 557.353 154.794 Q553.371 154.794 551.01 152.572 Q548.672 150.326 548.672 146.576 Q548.672 142.201 551.589 139.979 Q554.529 137.757 560.339 137.757 L566.311 137.757 L566.311 137.34 Q566.311 134.401 564.367 132.803 Q562.445 131.183 558.95 131.183 Q556.728 131.183 554.621 131.715 Q552.515 132.248 550.57 133.313 L550.57 129.377 Q552.908 128.475 555.107 128.035 Q557.307 127.572 559.39 127.572 Q565.015 127.572 567.793 130.488 Q570.57 133.405 570.57 139.331 Z" fill="#000000" fill-rule="nonzero" fill-opacity="1" /><path clip-path="url(#clip290)" d="M594.366 132.178 Q593.649 131.762 592.792 131.576 Q591.959 131.368 590.941 131.368 Q587.329 131.368 585.385 133.729 Q583.464 136.067 583.464 140.465 L583.464 154.123 L579.181 154.123 L579.181 128.197 L583.464 128.197 L583.464 132.225 Q584.806 129.863 586.959 128.729 Q589.112 127.572 592.191 127.572 Q592.63 127.572 593.163 127.641 Q593.695 127.688 594.343 127.803 L594.366 132.178 Z" fill="#000000" fill-rule="nonzero" fill-opacity="1" /><path clip-path="url(#clip290)" d="M602.954 150.234 L602.954 163.984 L598.672 163.984 L598.672 128.197 L602.954 128.197 L602.954 132.132 Q604.297 129.817 606.334 128.706 Q608.394 127.572 611.241 127.572 Q615.964 127.572 618.903 131.322 Q621.866 135.072 621.866 141.183 Q621.866 147.294 618.903 151.044 Q615.964 154.794 611.241 154.794 Q608.394 154.794 606.334 153.683 Q604.297 152.549 602.954 150.234 M617.445 141.183 Q617.445 136.484 615.501 133.822 Q613.579 131.137 610.2 131.137 Q606.82 131.137 604.876 133.822 Q602.954 136.484 602.954 141.183 Q602.954 145.882 604.876 148.567 Q606.82 151.229 610.2 151.229 Q613.579 151.229 615.501 148.567 Q617.445 145.882 617.445 141.183 Z" fill="#000000" fill-rule="nonzero" fill-opacity="1" /><path clip-path="url(#clip290)" d="M644.181 119.563 L650.477 119.563 L665.801 148.475 L665.801 119.563 L670.338 119.563 L670.338 154.123 L664.042 154.123 L648.718 125.211 L648.718 154.123 L644.181 154.123 L644.181 119.563 Z" fill="#000000" fill-rule="nonzero" fill-opacity="1" /><path clip-path="url(#clip290)" d="M679.019 143.891 L679.019 128.197 L683.278 128.197 L683.278 143.729 Q683.278 147.41 684.713 149.262 Q686.148 151.09 689.019 151.09 Q692.468 151.09 694.459 148.891 Q696.472 146.692 696.472 142.896 L696.472 128.197 L700.732 128.197 L700.732 154.123 L696.472 154.123 L696.472 150.141 Q694.922 152.502 692.861 153.66 Q690.824 154.794 688.116 154.794 Q683.648 154.794 681.334 152.016 Q679.019 149.238 679.019 143.891 M689.736 127.572 L689.736 127.572 Z" fill="#000000" fill-rule="nonzero" fill-opacity="1" /><path clip-path="url(#clip290)" d="M709.505 118.104 L713.764 118.104 L713.764 154.123 L709.505 154.123 L709.505 118.104 Z" fill="#000000" fill-rule="nonzero" fill-opacity="1" /><path clip-path="url(#clip290)" d="M722.676 118.104 L726.935 118.104 L726.935 154.123 L722.676 154.123 L722.676 118.104 Z" fill="#000000" fill-rule="nonzero" fill-opacity="1" /><polyline clip-path="url(#clip290)" style="stroke:#e26f46; stroke-linecap:round; stroke-linejoin:round; stroke-width:4; stroke-opacity:1; fill:none" points="332.158,188.683 466.432,188.683 "/>
<circle clip-path="url(#clip290)" cx="399.295" cy="188.683" r="18.6492" fill="#e26f46" fill-rule="evenodd" fill-opacity="1" stroke="#000000" stroke-opacity="1" stroke-width="3.82293"/>
<path clip-path="url(#clip290)" d="M488.812 171.403 L493.534 171.403 L500.802 200.615 L508.048 171.403 L513.302 171.403 L520.571 200.615 L527.816 171.403 L532.561 171.403 L523.881 205.963 L518.001 205.963 L510.71 175.963 L503.348 205.963 L497.469 205.963 L488.812 171.403 Z" fill="#000000" fill-rule="nonzero" fill-opacity="1" /><path clip-path="url(#clip290)" d="M557.978 191.935 L557.978 194.018 L538.395 194.018 Q538.672 198.416 541.033 200.731 Q543.418 203.023 547.654 203.023 Q550.107 203.023 552.399 202.421 Q554.714 201.819 556.982 200.615 L556.982 204.643 Q554.691 205.615 552.283 206.125 Q549.876 206.634 547.399 206.634 Q541.195 206.634 537.561 203.023 Q533.95 199.412 533.95 193.254 Q533.95 186.889 537.376 183.162 Q540.825 179.412 546.658 179.412 Q551.89 179.412 554.922 182.791 Q557.978 186.148 557.978 191.935 M553.719 190.685 Q553.672 187.19 551.751 185.106 Q549.853 183.023 546.705 183.023 Q543.14 183.023 540.987 185.037 Q538.858 187.051 538.533 190.708 L553.719 190.685 Z" fill="#000000" fill-rule="nonzero" fill-opacity="1" /><path clip-path="url(#clip290)" d="M576.751 192.93 Q571.589 192.93 569.598 194.111 Q567.607 195.291 567.607 198.139 Q567.607 200.407 569.089 201.75 Q570.593 203.069 573.163 203.069 Q576.705 203.069 578.834 200.569 Q580.987 198.046 580.987 193.879 L580.987 192.93 L576.751 192.93 M585.246 191.171 L585.246 205.963 L580.987 205.963 L580.987 202.027 Q579.529 204.389 577.353 205.523 Q575.177 206.634 572.029 206.634 Q568.047 206.634 565.686 204.412 Q563.348 202.166 563.348 198.416 Q563.348 194.041 566.265 191.819 Q569.205 189.597 575.015 189.597 L580.987 189.597 L580.987 189.18 Q580.987 186.241 579.043 184.643 Q577.121 183.023 573.626 183.023 Q571.404 183.023 569.297 183.555 Q567.191 184.088 565.246 185.153 L565.246 181.217 Q567.584 180.315 569.783 179.875 Q571.982 179.412 574.066 179.412 Q579.691 179.412 582.468 182.328 Q585.246 185.245 585.246 191.171 Z" fill="#000000" fill-rule="nonzero" fill-opacity="1" /><path clip-path="url(#clip290)" d="M593.857 169.944 L598.14 169.944 L598.14 191.217 L610.848 180.037 L616.288 180.037 L602.538 192.166 L616.866 205.963 L611.311 205.963 L598.14 193.301 L598.14 205.963 L593.857 205.963 L593.857 169.944 Z" fill="#000000" fill-rule="nonzero" fill-opacity="1" /><path clip-path="url(#clip290)" d="M636.727 171.403 L643.024 171.403 L658.348 200.315 L658.348 171.403 L662.885 171.403 L662.885 205.963 L656.588 205.963 L641.264 177.051 L641.264 205.963 L636.727 205.963 L636.727 171.403 Z" fill="#000000" fill-rule="nonzero" fill-opacity="1" /><path clip-path="url(#clip290)" d="M671.565 195.731 L671.565 180.037 L675.824 180.037 L675.824 195.569 Q675.824 199.25 677.26 201.102 Q678.695 202.93 681.565 202.93 Q685.014 202.93 687.005 200.731 Q689.019 198.532 689.019 194.736 L689.019 180.037 L693.278 180.037 L693.278 205.963 L689.019 205.963 L689.019 201.981 Q687.468 204.342 685.408 205.5 Q683.371 206.634 680.662 206.634 Q676.195 206.634 673.88 203.856 Q671.565 201.078 671.565 195.731 M682.283 179.412 L682.283 179.412 Z" fill="#000000" fill-rule="nonzero" fill-opacity="1" /><path clip-path="url(#clip290)" d="M702.051 169.944 L706.31 169.944 L706.31 205.963 L702.051 205.963 L702.051 169.944 Z" fill="#000000" fill-rule="nonzero" fill-opacity="1" /><path clip-path="url(#clip290)" d="M715.222 169.944 L719.482 169.944 L719.482 205.963 L715.222 205.963 L715.222 169.944 Z" fill="#000000" fill-rule="nonzero" fill-opacity="1" /></svg>
